<?xml version="1.0" encoding="UTF-8"?>
<svg version="1.1" xmlns="http://www.w3.org/2000/svg" width="420" height="140">
<path d="M0 0 C2.8640283 1.34060899 3.88623643 2.49685893 6 5 C6.875 7.8125 6.875 7.8125 7 10 C7.556875 8.5459375 7.556875 8.5459375 8.125 7.0625 C10 4 10 4 13 3 C16 3 16 3 19 5 C19.40843923 7.71203652 19.13336867 10.2437142 19 13 C16.525 13.99 16.525 13.99 14 15 C14 16.81261973 14.02954872 18.6251798 14.0625 20.4375 C13.99718436 24.16049169 13.68384561 26.0973238 11.4375 29.0625 C7.56546189 32.14027388 3.48560114 33.14693209 -1.37890625 32.859375 C-2.89765257 32.66921895 -4.41313548 32.44919448 -5.921875 32.19140625 C-8.34685271 31.8526147 -8.34685271 31.8526147 -12 33 C-8.04 33.99 -4.08 34.98 0 36 C0 36.66 0 37.32 0 38 C0.64066406 38.15855469 1.28132812 38.31710938 1.94140625 38.48046875 C7.91283821 40.0912425 12.35255255 41.85770988 17 46 C17 47.32 17 48.64 17 50 C15.02 50 13.04 50 11 50 C11.33 50.99 11.66 51.98 12 53 C12.66 53 13.32 53 14 53 C13.67 54.65 13.34 56.3 13 58 C6.565 58.495 6.565 58.495 0 59 C1.918125 58.9690625 1.918125 58.9690625 3.875 58.9375 C7.75 58.875 7.75 58.875 10 60 C12.3329866 60.04022391 14.66706666 60.04320247 17 60 C17 61.32 17 62.64 17 64 C14.525 64.495 14.525 64.495 12 65 C11.67 65.99 11.34 66.98 11 68 C8.3828125 69.38671875 8.3828125 69.38671875 5.125 70.6875 C4.05507812 71.12449219 2.98515625 71.56148438 1.8828125 72.01171875 C-1 73 -1 73 -4 73 C-4.33 73.66 -4.66 74.32 -5 75 C-6.97888961 75.72693904 -8.97954558 76.39816251 -11 77 C-11 77.66 -11 78.32 -11 79 C-11.928125 79.103125 -12.85625 79.20625 -13.8125 79.3125 C-17.11919757 80.02570928 -17.87473758 80.55594822 -20 83 C-20.66 83 -21.32 83 -22 83 C-22.66 83.66 -23.32 84.32 -24 85 C-26.625 85.125 -26.625 85.125 -29 85 C-29 85.66 -29 86.32 -29 87 C-29.93972656 87.07347656 -29.93972656 87.07347656 -30.8984375 87.1484375 C-31.71570313 87.22320312 -32.53296875 87.29796875 -33.375 87.375 C-34.59316406 87.47941406 -34.59316406 87.47941406 -35.8359375 87.5859375 C-38.20334191 87.82892588 -38.20334191 87.82892588 -40 90 C-42.68839385 90.26991906 -45.29141936 90.08737357 -48 90 C-48 89.34 -48 88.68 -48 88 C-48.99 88.66 -49.98 89.32 -51 90 C-54.1875 90.125 -54.1875 90.125 -57 90 C-57 89.01 -57 88.02 -57 87 C-54.87607494 86.3299166 -52.75082476 85.66403203 -50.625 85 C-49.44164063 84.62875 -48.25828125 84.2575 -47.0390625 83.875 C-44 83 -44 83 -42 83 C-42 82.34 -42 81.68 -42 81 C-41.40461426 80.823479 -40.80922852 80.64695801 -40.19580078 80.46508789 C-37.50496153 79.66613825 -34.81497491 78.86435473 -32.125 78.0625 C-31.18785156 77.78470703 -30.25070313 77.50691406 -29.28515625 77.22070312 C-28.38925781 76.95322266 -27.49335937 76.68574219 -26.5703125 76.41015625 C-25.74289551 76.16402588 -24.91547852 75.91789551 -24.06298828 75.66430664 C-21.96834343 75.0473112 -21.96834343 75.0473112 -20 74 C-22.31 74 -24.62 74 -27 74 C-27 74.66 -27 75.32 -27 76 C-30.60295699 76.83862315 -34.20755065 77.66998677 -37.8125 78.5 C-38.83666016 78.73847656 -39.86082031 78.97695312 -40.91601562 79.22265625 C-41.89892578 79.44824219 -42.88183594 79.67382812 -43.89453125 79.90625 C-44.80050049 80.11572266 -45.70646973 80.32519531 -46.63989258 80.54101562 C-49 81 -49 81 -52 81 C-52 81.66 -52 82.32 -52 83 C-52.59014893 83.14099121 -53.18029785 83.28198242 -53.78833008 83.42724609 C-56.46458529 84.07030575 -59.13852129 84.72254186 -61.8125 85.375 C-62.74126953 85.59671875 -63.67003906 85.8184375 -64.62695312 86.046875 C-65.51962891 86.26601562 -66.41230469 86.48515625 -67.33203125 86.7109375 C-68.15421143 86.90993652 -68.9763916 87.10893555 -69.82348633 87.31396484 C-72.25666239 87.96967203 -72.25666239 87.96967203 -75 90 C-77.4519043 90.22705078 -77.4519043 90.22705078 -80.32421875 90.1953125 C-81.35224609 90.18886719 -82.38027344 90.18242188 -83.43945312 90.17578125 C-84.51130859 90.15902344 -85.58316406 90.14226562 -86.6875 90.125 C-87.77095703 90.11597656 -88.85441406 90.10695313 -89.97070312 90.09765625 C-92.6473571 90.0740734 -95.32356797 90.04116126 -98 90 C-98 89.34 -98 88.68 -98 88 C-101.96 88.99 -101.96 88.99 -106 90 C-106.33 89.01 -106.66 88.02 -107 87 C-108.2375 86.855625 -109.475 86.71125 -110.75 86.5625 C-113.5722252 86.21034185 -116.25536699 85.75714014 -119 85 C-120.66519519 84.65939189 -122.33157466 84.32441604 -124 84 C-124 82 -124 82 -122.5 80.375 C-122.005 79.92125 -121.51 79.4675 -121 79 C-122.98 79 -124.96 79 -127 79 C-126.67 77.68 -126.34 76.36 -126 75 C-127.32 74.67 -128.64 74.34 -130 74 C-130 73.01 -130 72.02 -130 71 C-128.68 71 -127.36 71 -126 71 C-126 70.34 -126 69.68 -126 69 C-125.01 68.505 -125.01 68.505 -124 68 C-124 67.34 -124 66.68 -124 66 C-124.66 66 -125.32 66 -126 66 C-125.67 64.68 -125.34 63.36 -125 62 C-126.32 61.34 -127.64 60.68 -129 60 C-129 59.01 -129 58.02 -129 57 C-128.01 56.505 -128.01 56.505 -127 56 C-129.64 55.34 -132.28 54.68 -135 54 C-135 50 -135 50 -133.5 48.3125 C-133.005 47.879375 -132.51 47.44625 -132 47 C-132 46.67 -132 46.34 -132 46 C-129.03 45.505 -129.03 45.505 -126 45 C-126 44.67 -126 44.34 -126 44 C-124.35 44 -122.7 44 -121 44 C-121 43.34 -121 42.68 -121 42 C-119.1128125 42.0928125 -119.1128125 42.0928125 -117.1875 42.1875 C-113.97220523 42.3124157 -113.97220523 42.3124157 -111.4375 40.5625 C-110.963125 40.046875 -110.48875 39.53125 -110 39 C-106.3125 38.3125 -106.3125 38.3125 -103 38 C-103 37.34 -103 36.68 -103 36 C-103.99 36 -104.98 36 -106 36 C-106 35.01 -106 34.02 -106 33 C-103 31 -103 31 -99 31 C-99 30.01 -99 29.02 -99 28 C-98.34 28 -97.68 28 -97 28 C-97 27.34 -97 26.68 -97 26 C-98.32 25.34 -99.64 24.68 -101 24 C-100.67 23.34 -100.34 22.68 -100 22 C-100.66 21.67 -101.32 21.34 -102 21 C-102 20.01 -102 19.02 -102 18 C-101.31292969 17.87882812 -100.62585938 17.75765625 -99.91796875 17.6328125 C-99.01691406 17.46523438 -98.11585937 17.29765625 -97.1875 17.125 C-96.29417969 16.96257813 -95.40085938 16.80015625 -94.48046875 16.6328125 C-91.77272154 16.08811551 -91.77272154 16.08811551 -89 14 C-88.01 14.66 -87.02 15.32 -86 16 C-86 15.01 -86 14.02 -86 13 C-83.98177083 13.03255208 -81.96354167 13.06510417 -79.9453125 13.09765625 C-77.91814596 13.12649242 -77.91814596 13.12649242 -76 12 C-74.8553125 12.37125 -74.8553125 12.37125 -73.6875 12.75 C-72.3571875 12.87375 -72.3571875 12.87375 -71 13 C-68.43750025 10.68767578 -68.43750025 10.68767578 -66 8 C-63.490774 6.77456405 -61.78356118 6 -59 6 C-57.8553125 5.4740625 -57.8553125 5.4740625 -56.6875 4.9375 C-53.54052571 3.83971827 -52.1359411 3.9546863 -49 5 C-46.6875 6.5625 -46.6875 6.5625 -45 8 C-44.58234375 7.54109375 -44.1646875 7.0821875 -43.734375 6.609375 C-40.91295703 3.99130247 -37.71337942 2.8805624 -34 2 C-30.5642164 2.17178918 -28.05954296 2.37635863 -25.08203125 4.12890625 C-22.34260236 5.27504629 -21.18256844 4.77185289 -18.4375 3.75 C-17.67308594 3.47671875 -16.90867187 3.2034375 -16.12109375 2.921875 C-10.07183913 0.29273303 -6.83758403 -0.9558962 0 0 Z M-13 5 C-13 5.66 -13 6.32 -13 7 C-15.31 7 -17.62 7 -20 7 C-20 7.66 -20 8.32 -20 9 C-20.99 9.495 -20.99 9.495 -22 10 C-21.34 10.66 -20.68 11.32 -20 12 C-19.75577845 15.29699091 -19.79936567 18.15287727 -20.5625 21.375 C-22.88860263 24.00450732 -25.64329111 23.7513549 -29 24 C-28.67 25.32 -28.34 26.64 -28 28 C-25.07002896 28.77558057 -23.07776682 29.01323691 -20.0625 28.5 C-17 28 -17 28 -14 28.5625 C-10.94276733 29.24358352 -10.94276733 29.24358352 -7.9375 27.9375 C-4.32560819 26.78476857 -3.38348156 27.56202034 0 29 C3.80924818 28.84452048 5.47588474 28.45515272 8.375 25.9375 C8.91125 25.298125 9.4475 24.65875 10 24 C9.505 22.515 9.505 22.515 9 21 C9 21.66 9 22.32 9 23 C5.37 23 1.74 23 -2 23 C-2 21.02 -2 19.04 -2 17 C1.63 17 5.26 17 9 17 C8.46016084 13.03042386 8.46016084 13.03042386 6.125 11.625 C4 10 4 10 2.5625 6.9375 C1.26257718 3.84740863 1.26257718 3.84740863 -1.5 2.625 C-6.30794798 1.423013 -8.74325999 2.72973866 -13 5 Z M-36 6 C-36 6.99 -36 7.98 -36 9 C-37.3303125 8.87625 -37.3303125 8.87625 -38.6875 8.75 C-42.06415673 8.78173015 -42.06415673 8.78173015 -44.9375 10.5625 C-47.43079345 12.94620809 -47.43079345 12.94620809 -46.8125 16.75 C-46.544375 17.8225 -46.27625 18.895 -46 20 C-45.26394531 19.83242188 -44.52789062 19.66484375 -43.76953125 19.4921875 C-42.79371094 19.28851563 -41.81789063 19.08484375 -40.8125 18.875 C-39.84957031 18.66617188 -38.88664062 18.45734375 -37.89453125 18.2421875 C-34.61592149 17.96786388 -32.95226475 18.64729007 -30 20 C-26.87413125 20.33397787 -26.87413125 20.33397787 -24 20 C-21.77033253 18.17796419 -21.77033253 18.17796419 -21.6875 15.5625 C-21.78586475 12.96639046 -21.78586475 12.96639046 -23.375 11.1875 C-24.93368783 9.8033278 -24.93368783 9.8033278 -27 10 C-27.144375 9.360625 -27.28875 8.72125 -27.4375 8.0625 C-27.81007181 6.02454854 -27.81007181 6.02454854 -29 5 C-32.63194641 4.80850919 -32.63194641 4.80850919 -36 6 Z M13 6 C12.67 7.65 12.34 9.3 12 11 C13.32 11.33 14.64 11.66 16 12 C16.33 10.35 16.66 8.7 17 7 C15.68 6.67 14.36 6.34 13 6 Z M-57 9 C-56.34 10.32 -55.68 11.64 -55 13 C-52.69 12.34 -50.38 11.68 -48 11 C-48.33 10.34 -48.66 9.68 -49 9 C-51.64 9 -54.28 9 -57 9 Z M-63 10 C-62.01 10.495 -62.01 10.495 -61 11 C-61.66 13.31 -62.32 15.62 -63 18 C-61.68 17.67 -60.36 17.34 -59 17 C-58.32041397 14.60280568 -58.32041397 14.60280568 -58 12 C-58.66 11.34 -59.32 10.68 -60 10 C-60.99 10 -61.98 10 -63 10 Z M-67 12 C-66.34 12.66 -65.68 13.32 -65 14 C-65 13.34 -65 12.68 -65 12 C-65.66 12 -66.32 12 -67 12 Z M-68 16 C-67 18 -67 18 -67 18 Z M-53 16 C-53.93423645 19.01031744 -54.04449911 19.86650268 -53 23 C-51.35 23.33 -49.7 23.66 -48 24 C-47.67 23.01 -47.34 22.02 -47 21 C-47.99 20.67 -48.98 20.34 -50 20 C-50.6875 17.9375 -50.6875 17.9375 -51 16 C-51.66 16 -52.32 16 -53 16 Z M-42 21 C-42 21.66 -42 22.32 -42 23 C-42.99 23 -43.98 23 -45 23 C-44.67 23.99 -44.34 24.98 -44 26 C-39.68964518 27.34256953 -36.52218352 28 -32 28 C-32.57584432 25.61435923 -33.22227595 23.33317216 -34 21 C-36.64 21 -39.28 21 -42 21 Z M-89 25 C-89 25.66 -89 26.32 -89 27 C-88.34 27 -87.68 27 -87 27 C-87 26.34 -87 25.68 -87 25 C-87.66 25 -88.32 25 -89 25 Z M-74 33 C-73.01 35.64 -72.02 38.28 -71 41 C-69.37536158 41.05395478 -67.75021459 41.09277195 -66.125 41.125 C-65.22007813 41.14820313 -64.31515625 41.17140625 -63.3828125 41.1953125 C-60.81193006 41.24324836 -60.81193006 41.24324836 -59 39 C-61.3014112 35.5478832 -62.09114808 35.37998974 -65.9375 34.3125 C-66.81277344 34.06113281 -67.68804687 33.80976562 -68.58984375 33.55078125 C-71.07538598 32.88860905 -71.07538598 32.88860905 -74 33 Z M-53 40 C-52.67 40.99 -52.34 41.98 -52 43 C-52 42.01 -52 41.02 -52 40 C-52.33 40 -52.66 40 -53 40 Z M-87 41 C-86.67 41.99 -86.34 42.98 -86 44 C-85.67 43.01 -85.34 42.02 -85 41 C-85.66 41 -86.32 41 -87 41 Z M-28 51 C-27 54 -27 54 -27 54 Z M-9 51 C-8.34 51.66 -7.68 52.32 -7 53 C-7 52.34 -7 51.68 -7 51 C-7.66 51 -8.32 51 -9 51 Z M-17 53 C-17 54.32 -17 55.64 -17 57 C-16.34 57 -15.68 57 -15 57 C-15 55.68 -15 54.36 -15 53 C-15.66 53 -16.32 53 -17 53 Z M-8 55 C-8.33 55.66 -8.66 56.32 -9 57 C-7.68 57 -6.36 57 -5 57 C-5 56.34 -5 55.68 -5 55 C-5.99 55 -6.98 55 -8 55 Z M-24 59 C-24 60.65 -24 62.3 -24 64 C-19.545 63.505 -19.545 63.505 -15 63 C-15.33 62.01 -15.66 61.02 -16 60 C-18.64 59.67 -21.28 59.34 -24 59 Z M-34.1875 60.375 C-34.785625 60.58125 -35.38375 60.7875 -36 61 C-35.67 61.99 -35.34 62.98 -35 64 C-35 63.34 -35 62.68 -35 62 C-33.02 62 -31.04 62 -29 62 C-31.71549154 59.69328085 -31.71549154 59.69328085 -34.1875 60.375 Z M-103 84 C-102.67 84.66 -102.34 85.32 -102 86 C-101.67 85.34 -101.34 84.68 -101 84 C-101.66 84 -102.32 84 -103 84 Z " fill="#8F3B20" transform="translate(141,27)"/>
<path d="M0 0 C0.90621094 0.00128906 1.81242187 0.00257812 2.74609375 0.00390625 C9.45248724 0.09332483 9.45248724 0.09332483 12.875 2.375 C13.41125 2.024375 13.9475 1.67375 14.5 1.3125 C17.70171352 0.04866572 19.58082367 0.48282724 22.875 1.375 C26.21775502 3.43283915 27.51140162 5.14084311 28.796875 8.82421875 C29.09980469 9.67177734 29.40273437 10.51933594 29.71484375 11.39257812 C30.01519531 12.27365234 30.31554687 13.15472656 30.625 14.0625 C30.94082031 14.95517578 31.25664062 15.84785156 31.58203125 16.76757812 C32.35803572 18.96625746 33.1217992 21.16842649 33.875 23.375 C35.195 21.725 36.515 20.075 37.875 18.375 C36.885 18.375 35.895 18.375 34.875 18.375 C34.875 16.065 34.875 13.755 34.875 11.375 C39.88778215 9.62111878 43.67110621 8.84594711 48.6875 10.9375 C53.68636237 13.54143702 56.12578295 16.38957483 58.125 21.6875 C58.3725 22.574375 58.62 23.46125 58.875 24.375 C59.37 23.88 59.37 23.88 59.875 23.375 C59.7925 22.4675 59.71 21.56 59.625 20.625 C59.875 17.375 59.875 17.375 62.25 14.5625 C65.83817395 11.57235504 67.42212279 11.25380927 72 11.3125 C72.91007812 11.32152344 73.82015625 11.33054687 74.7578125 11.33984375 C75.80582031 11.35724609 75.80582031 11.35724609 76.875 11.375 C77.205 10.385 77.535 9.395 77.875 8.375 C79.87109375 7.609375 79.87109375 7.609375 82.3125 7.125 C83.11558594 6.95484375 83.91867187 6.7846875 84.74609375 6.609375 C86.875 6.375 86.875 6.375 88.875 7.375 C88.875 8.695 88.875 10.015 88.875 11.375 C90.009375 10.9625 91.14375 10.55 92.3125 10.125 C96.89959274 8.97618992 99.76388897 9.97971653 103.89453125 12.10546875 C107.79661651 14.60680545 109.51742629 17.15924939 110.8125 21.5625 C111.60566376 24.60451036 111.60566376 24.60451036 114.5 25.75 C115.675625 26.059375 115.675625 26.059375 116.875 26.375 C117.205 24.395 117.535 22.415 117.875 20.375 C117.215 20.045 116.555 19.715 115.875 19.375 C115.6875 16.5 115.6875 16.5 115.875 13.375 C119.66378142 10.84914572 122.50956939 11.04910848 126.875 11.375 C128.0196875 11.44267578 128.0196875 11.44267578 129.1875 11.51171875 C132.96577978 12.00315041 135.13520809 12.55627631 137.7421875 15.44140625 C139.6781576 18.32683537 141.32272423 21.27044847 142.875 24.375 C143.205 19.755 143.535 15.135 143.875 10.375 C142.885 10.375 141.895 10.375 140.875 10.375 C140.875 8.395 140.875 6.415 140.875 4.375 C143.35 3.385 143.35 3.385 145.875 2.375 C145.875 1.715 145.875 1.055 145.875 0.375 C148.845 0.375 151.815 0.375 154.875 0.375 C154.875 8.955 154.875 17.535 154.875 26.375 C155.535 26.375 156.195 26.375 156.875 26.375 C157.535 24.065 158.195 21.755 158.875 19.375 C158.545 19.045 158.215 18.715 157.875 18.375 C157.83407063 16.04202567 157.83258277 13.70794775 157.875 11.375 C163.06810185 9.40563529 166.93257446 8.88742323 172.125 11.125 C177.01891767 13.85648893 178.84369318 17.13483495 180.83984375 22.265625 C181.18144531 22.96171875 181.52304687 23.6578125 181.875 24.375 C182.865 24.705 183.855 25.035 184.875 25.375 C184.875 20.425 184.875 15.475 184.875 10.375 C183.555 10.375 182.235 10.375 180.875 10.375 C180.875 8.395 180.875 6.415 180.875 4.375 C181.514375 4.08625 182.15375 3.7975 182.8125 3.5 C185.02706079 2.54676549 185.02706079 2.54676549 185.875 0.375 C191.485 0.375 197.095 0.375 202.875 0.375 C203.205 1.695 203.535 3.015 203.875 4.375 C203.215 4.375 202.555 4.375 201.875 4.375 C201.545 5.365 201.215 6.355 200.875 7.375 C198.895 6.88 198.895 6.88 196.875 6.375 C196.545 12.975 196.215 19.575 195.875 26.375 C197.195 26.375 198.515 26.375 199.875 26.375 C199.875 29.015 199.875 31.655 199.875 34.375 C196.62507554 34.43319424 193.37528565 34.46866116 190.125 34.5 C189.20460938 34.51675781 188.28421875 34.53351563 187.3359375 34.55078125 C186.44648438 34.55722656 185.55703125 34.56367187 184.640625 34.5703125 C183.41520996 34.58602295 183.41520996 34.58602295 182.16503906 34.60205078 C179.65514663 34.35320217 178.09459992 33.51584332 175.875 32.375 C174.53253688 33.02308564 173.20067199 33.69322584 171.875 34.375 C168.15683899 34.57069268 165.41470718 34.55490239 161.875 33.375 C161.875 32.715 161.875 32.055 161.875 31.375 C161.215 31.375 160.555 31.375 159.875 31.375 C159.545 32.365 159.215 33.355 158.875 34.375 C149.635 34.375 140.395 34.375 130.875 34.375 C130.875 30.70833333 130.875 27.04166667 130.875 23.375 C129.885 21.89 129.885 21.89 128.875 20.375 C128.545 22.355 128.215 24.335 127.875 26.375 C128.535 26.375 129.195 26.375 129.875 26.375 C129.875 29.015 129.875 31.655 129.875 34.375 C126.62507554 34.43319424 123.37528565 34.46866116 120.125 34.5 C119.20460938 34.51675781 118.28421875 34.53351563 117.3359375 34.55078125 C116.44648438 34.55722656 115.55703125 34.56367187 114.640625 34.5703125 C113.41520996 34.58602295 113.41520996 34.58602295 112.16503906 34.60205078 C109.65514663 34.35320217 108.09459992 33.51584332 105.875 32.375 C104.53253688 33.02308564 103.20067199 33.69322584 101.875 34.375 C94.09722222 34.93055556 94.09722222 34.93055556 90.875 32.375 C89.04914958 30.1851351 87.68472465 28.12350199 86.875 25.375 C87.88080346 22.51640068 88.72294494 20.52705506 90.875 18.375 C89.885 18.375 88.895 18.375 87.875 18.375 C88.205 16.395 88.535 14.415 88.875 12.375 C87.885 12.375 86.895 12.375 85.875 12.375 C85.9064209 13.47956543 85.9064209 13.47956543 85.93847656 14.60644531 C86.02167144 17.94582442 86.07367157 21.28498549 86.125 24.625 C86.15851563 25.78386719 86.19203125 26.94273438 86.2265625 28.13671875 C86.24589844 29.80927734 86.24589844 29.80927734 86.265625 31.515625 C86.2970459 33.05524902 86.2970459 33.05524902 86.32910156 34.62597656 C85.75380689 38.10867442 84.57629082 39.17860056 81.875 41.375 C78.10784564 43.88643624 75.22742622 44.22514001 70.875 43.375 C67.27301785 41.75077761 63.9039467 39.92601864 60.875 37.375 C60.875 36.385 60.875 35.395 60.875 34.375 C54.79464185 33.33109563 54.79464185 33.33109563 48.875 34.375 C41.30395204 34.78796625 41.30395204 34.78796625 37.875 32.375 C37.215 31.385 36.555 30.395 35.875 29.375 C35.545 31.025 35.215 32.675 34.875 34.375 C30.915 34.375 26.955 34.375 22.875 34.375 C20.875 29.375 20.875 29.375 20.875 25.375 C21.535 25.375 22.195 25.375 22.875 25.375 C22.33359375 24.14523438 22.33359375 24.14523438 21.78125 22.890625 C21.3171875 21.81296875 20.853125 20.7353125 20.375 19.625 C19.9109375 18.55765625 19.446875 17.4903125 18.96875 16.390625 C17.875 13.375 17.875 13.375 17.875 9.375 C17.215 9.375 16.555 9.375 15.875 9.375 C15.875 14.985 15.875 20.595 15.875 26.375 C16.865 26.375 17.855 26.375 18.875 26.375 C18.875 29.015 18.875 31.655 18.875 34.375 C7.655 34.375 -3.565 34.375 -15.125 34.375 C-15.125 31.735 -15.125 29.095 -15.125 26.375 C-14.135 26.375 -13.145 26.375 -12.125 26.375 C-12.13660156 25.38757813 -12.14820313 24.40015625 -12.16015625 23.3828125 C-12.16917969 22.10148437 -12.17820313 20.82015625 -12.1875 19.5 C-12.19910156 18.22382812 -12.21070313 16.94765625 -12.22265625 15.6328125 C-12.125 12.375 -12.125 12.375 -11.125 10.375 C-12.445 10.375 -13.765 10.375 -15.125 10.375 C-15.4375 7.625 -15.4375 7.625 -15.125 4.375 C-10.79231685 -0.63046004 -6.13804342 -0.16732113 0 0 Z M-1.125 8.375 C-2.3312252 11.99367559 -2.23316918 15.30006251 -2.1875 19.0625 C-2.18298828 19.76439453 -2.17847656 20.46628906 -2.17382812 21.18945312 C-2.16206927 22.91800538 -2.14413454 24.64651365 -2.125 26.375 C0.515 26.375 3.155 26.375 5.875 26.375 C5.90190844 23.74993198 5.92179404 21.12513827 5.9375 18.5 C5.94587891 17.75363281 5.95425781 17.00726563 5.96289062 16.23828125 C6.08188084 12.17654422 6.08188084 12.17654422 4.875 8.375 C2.895 8.375 0.915 8.375 -1.125 8.375 Z M71.875 18.375 C71.545 19.695 71.215 21.015 70.875 22.375 C72.525 22.375 74.175 22.375 75.875 22.375 C75.545 21.055 75.215 19.735 74.875 18.375 C73.885 18.375 72.895 18.375 71.875 18.375 Z M44.875 23.375 C44.545 24.035 44.215 24.695 43.875 25.375 C45.195 25.045 46.515 24.715 47.875 24.375 C46.885 24.045 45.895 23.715 44.875 23.375 Z M97.875 23.375 C97.545 24.035 97.215 24.695 96.875 25.375 C98.195 25.045 99.515 24.715 100.875 24.375 C99.885 24.045 98.895 23.715 97.875 23.375 Z M166.875 23.375 C166.545 24.035 166.215 24.695 165.875 25.375 C167.195 25.045 168.515 24.715 169.875 24.375 C168.885 24.045 167.895 23.715 166.875 23.375 Z M62.875 27.375 C62.875 29.025 62.875 30.675 62.875 32.375 C63.431875 32.1275 63.98875 31.88 64.5625 31.625 C66.875 31.375 66.875 31.375 69.375 33.3125 C70.2 33.993125 71.025 34.67375 71.875 35.375 C73.195 35.375 74.515 35.375 75.875 35.375 C75.875 33.395 75.875 31.415 75.875 29.375 C74.84439453 29.28412109 74.84439453 29.28412109 73.79296875 29.19140625 C72.89191406 29.10761719 71.99085938 29.02382812 71.0625 28.9375 C70.16917969 28.85628906 69.27585937 28.77507812 68.35546875 28.69140625 C65.875 28.375 65.875 28.375 62.875 27.375 Z " fill="#E11D23" transform="translate(174.125,46.625)"/>
<path d="M0 0 C0.78826172 0.02255859 1.57652344 0.04511719 2.38867188 0.06835938 C4.32243929 0.12695839 6.25522167 0.21663173 8.1875 0.3125 C8.1875 1.6325 8.1875 2.9525 8.1875 4.3125 C7.5275 4.3125 6.8675 4.3125 6.1875 4.3125 C6.1875 5.6325 6.1875 6.9525 6.1875 8.3125 C7.8375 8.3125 9.4875 8.3125 11.1875 8.3125 C10.8575 5.6725 10.5275 3.0325 10.1875 0.3125 C27.0175 0.3125 43.8475 0.3125 61.1875 0.3125 C61.6825 2.2925 61.6825 2.2925 62.1875 4.3125 C61.1975 4.3125 60.2075 4.3125 59.1875 4.3125 C59.1875 7.9425 59.1875 11.5725 59.1875 15.3125 C60.1775 15.6425 61.1675 15.9725 62.1875 16.3125 C62.1875 17.3025 62.1875 18.2925 62.1875 19.3125 C57.2375 19.3125 52.2875 19.3125 47.1875 19.3125 C46.6925 17.8275 46.6925 17.8275 46.1875 16.3125 C46.1875 17.3025 46.1875 18.2925 46.1875 19.3125 C34.3075 19.3125 22.4275 19.3125 10.1875 19.3125 C10.5175 16.6725 10.8475 14.0325 11.1875 11.3125 C9.5375 11.3125 7.8875 11.3125 6.1875 11.3125 C6.1875 12.6325 6.1875 13.9525 6.1875 15.3125 C6.8475 15.3125 7.5075 15.3125 8.1875 15.3125 C8.1875 16.6325 8.1875 17.9525 8.1875 19.3125 C2.2475 19.3125 -3.6925 19.3125 -9.8125 19.3125 C-9.8125 18.6525 -9.8125 17.9925 -9.8125 17.3125 C-10.8025 16.9825 -11.7925 16.6525 -12.8125 16.3125 C-14.81059988 13.71497015 -14.81023038 12.18767098 -14.75 8.875 C-12.56372291 0.56714706 -7.60287288 -0.41423867 0 0 Z M0.1875 3.3125 C0.1875 4.3025 0.1875 5.2925 0.1875 6.3125 C-0.8025 5.6525 -1.7925 4.9925 -2.8125 4.3125 C-5.93771833 4.14550768 -5.93771833 4.14550768 -8.8125 4.3125 C-10.30547212 7.29844424 -9.93005228 10.02103624 -9.8125 13.3125 C-9.4825 13.9725 -9.1525 14.6325 -8.8125 15.3125 C-6.7208634 15.77963229 -6.7208634 15.77963229 -4.3125 15.9375 C-3.4978125 16.01226562 -2.683125 16.08703125 -1.84375 16.1640625 C-0.3294702 16.27514626 -0.3294702 16.27514626 1.1875 16.3125 C1.1875 12.0225 1.1875 7.7325 1.1875 3.3125 C0.8575 3.3125 0.5275 3.3125 0.1875 3.3125 Z M16.1875 4.3125 C16.1875 7.9425 16.1875 11.5725 16.1875 15.3125 C17.1775 14.9825 18.1675 14.6525 19.1875 14.3125 C18.5275 14.3125 17.8675 14.3125 17.1875 14.3125 C17.1875 11.3425 17.1875 8.3725 17.1875 5.3125 C17.8475 4.9825 18.5075 4.6525 19.1875 4.3125 C18.1975 4.3125 17.2075 4.3125 16.1875 4.3125 Z M22.1875 4.3125 C22.1875 7.9425 22.1875 11.5725 22.1875 15.3125 C23.1775 15.3125 24.1675 15.3125 25.1875 15.3125 C25.1875 11.6825 25.1875 8.0525 25.1875 4.3125 C24.1975 4.3125 23.2075 4.3125 22.1875 4.3125 Z M33.9375 6.3125 C33.36 6.9725 32.7825 7.6325 32.1875 8.3125 C33.39131448 10.80611571 34.64178722 12.99393083 36.1875 15.3125 C37.5075 15.3125 38.8275 15.3125 40.1875 15.3125 C40.1875 11.6825 40.1875 8.0525 40.1875 4.3125 C36.18403977 3.86959077 36.18403977 3.86959077 33.9375 6.3125 Z M48.9375 6.3125 C48.36 6.9725 47.7825 7.6325 47.1875 8.3125 C48.47049758 11.17457152 49.718136 13.3370088 52.1875 15.3125 C53.1775 15.3125 54.1675 15.3125 55.1875 15.3125 C55.1875 11.6825 55.1875 8.0525 55.1875 4.3125 C51.18403977 3.86959077 51.18403977 3.86959077 48.9375 6.3125 Z M30.1875 14.3125 C30.5175 15.3025 30.8475 16.2925 31.1875 17.3125 C31.1875 16.3225 31.1875 15.3325 31.1875 14.3125 C30.8575 14.3125 30.5275 14.3125 30.1875 14.3125 Z " fill="#292827" transform="translate(311.8125,86.6875)"/>
<path d="M0 0 C0 0.99 0 1.98 0 3 C-1.32 3.33 -2.64 3.66 -4 4 C-4 4.66 -4 5.32 -4 6 C-5.60256108 6.50512244 -7.20711792 7.00391627 -8.8125 7.5 C-9.70582031 7.7784375 -10.59914063 8.056875 -11.51953125 8.34375 C-14 9 -14 9 -17 9 C-17 9.66 -17 10.32 -17 11 C-34.17865864 14.34610394 -50.74865908 12.91032372 -68 11 C-68 10.34 -68 9.68 -68 9 C-79.22 9 -90.44 9 -102 9 C-102 9.66 -102 10.32 -102 11 C-103.22976563 11.29003906 -103.22976563 11.29003906 -104.484375 11.5859375 C-105.56203125 11.84632812 -106.6396875 12.10671875 -107.75 12.375 C-108.81734375 12.63023438 -109.8846875 12.88546875 -110.984375 13.1484375 C-113.57053116 13.87872512 -115.62578289 14.79206498 -118 16 C-120.75 16.125 -120.75 16.125 -123 16 C-120.47211993 13.20127563 -118.79588866 11.54226981 -115 11 C-115 10.34 -115 9.68 -115 9 C-108.375 6 -108.375 6 -105 6 C-105 5.34 -105 4.68 -105 4 C-90.80774376 0.54420238 -77.51587654 0.78232676 -63.0559082 2.22680664 C-60.91094128 2.44014149 -58.76516845 2.64334875 -56.61914062 2.84570312 C-55.25515026 2.97857185 -53.89121556 3.11201358 -52.52734375 3.24609375 C-51.29749756 3.36654053 -50.06765137 3.4869873 -48.80053711 3.61108398 C-46 4 -46 4 -45 5 C-41.01316655 5.24400131 -37.02248351 5.22861641 -33.02880859 5.24023438 C-31.03601031 5.24982667 -29.04335311 5.28096573 -27.05078125 5.3125 C-19.78347604 5.34189254 -13.68117276 4.95126815 -7 2 C-2.05263158 0 -2.05263158 0 0 0 Z " fill="#C22425" transform="translate(383,110)"/>
<path d="M0 0 C4.29 0.33 8.58 0.66 13 1 C12.67 2.65 12.34 4.3 12 6 C8.04 6 4.08 6 0 6 C-1 2 -1 2 0 0 Z " fill="#8F3A20" transform="translate(125,44)"/>
<path d="M0 0 C2.31 0 4.62 0 7 0 C7.33 1.32 7.66 2.64 8 4 C7.34 4 6.68 4 6 4 C5.67 4.99 5.34 5.98 5 7 C1.125 6.125 1.125 6.125 0 5 C-0.04063832 3.33382885 -0.042721 1.66611905 0 0 Z " fill="#262625" transform="translate(370,47)"/>
<path d="" fill="#8B3315" transform="translate(0,0)"/>
<path d="" fill="#8E3C1C" transform="translate(0,0)"/>
</svg>
